<?xml version="1.0" encoding="utf-8" ?>
<svg xmlns="http://www.w3.org/2000/svg" xmlns:xlink="http://www.w3.org/1999/xlink" width="479" height="184">
	<path transform="translate(48 36)" d="M254.46001 0C240.36209 0.037037186 134.63791 0.037037186 120.54 0L28 0C12.536027 0 0 12.536027 0 28L0 80L375 80L375 28C375 12.536027 362.46396 0 347 0L254.46001 0Z"/>
	<path transform="translate(48 36)" d="M254.46001 0C240.36209 0.037037186 134.63791 0.037037186 120.54 0L28 0C12.536027 0 0 12.536027 0 28L0 80L375 80L375 28C375 12.536027 362.46396 0 347 0L254.46001 0Z"/>
	<path fill="#0F1E2B" transform="translate(48 36)" d="M254.46001 0C240.36209 0.037037186 134.63791 0.037037186 120.54 0L28 0C12.536027 0 0 12.536027 0 28L0 80L375 80L375 28C375 12.536027 362.46396 0 347 0L254.46001 0Z"/>
	<path fill="#728CAB" transform="translate(144 84)" d="M5.1815724 12.113063Q3.8996351 12.113063 2.9871662 11.582531Q2.0746975 11.052 1.5863538 10.075781Q1.0980101 9.0995626 1.0980101 7.7639999Q1.0980101 6.7644377 1.3756038 5.9664373Q1.6531975 5.1684375 2.1775413 4.6020002Q2.701885 4.0355625 3.4636037 3.73125Q4.2253227 3.4269376 5.1815724 3.4269376Q5.8865724 3.4269376 6.5416975 3.6192188Q7.1968226 3.8115001 7.6803851 4.1720624Q7.883635 4.30725 7.9502912 4.4910936Q8.0169477 4.6749377 7.9741974 4.8449998Q7.9314475 5.0150623 7.8074164 5.1296248Q7.6833849 5.2441874 7.5013227 5.2534685Q7.3192601 5.2627501 7.1038227 5.1191249Q6.7006974 4.8200626 6.2218227 4.6808438Q5.7429476 4.541625 5.2121348 4.541625Q4.3081975 4.541625 3.6819475 4.9191561Q3.0556974 5.2966876 2.734885 6.013875Q2.4140725 6.7310624 2.4140725 7.7639999Q2.4140725 8.7918749 2.734885 9.5175934Q3.0556974 10.243313 3.6819475 10.620844Q4.3081975 10.998375 5.2121348 10.998375Q5.7444477 10.998375 6.2336349 10.853156Q6.7228227 10.707937 7.1465726 10.408875Q7.36201 10.273687 7.5355411 10.28475Q7.7090726 10.295813 7.8287911 10.401844Q7.9485102 10.507875 7.9912601 10.669406Q8.0340099 10.830937 7.9793539 11.004469Q7.9246974 11.178 7.7469473 11.309813Q7.2530727 11.702812 6.5818224 11.907937Q5.9105725 12.113063 5.1815724 12.113063ZM11.48971 12.113063Q10.612397 12.113063 9.9664593 11.741062Q9.3205223 11.369062 8.9641781 10.684313Q8.6078348 9.9995623 8.6078348 9.0705004Q8.6078348 8.3694372 8.8091164 7.8131251Q9.010397 7.2568126 9.3908348 6.8565936Q9.7712727 6.4563751 10.302366 6.2463751Q10.83346 6.036375 11.48971 6.036375Q12.367023 6.036375 13.013054 6.4083748Q13.659084 6.780375 14.015429 7.460906Q14.371772 8.1414375 14.371772 9.0705004Q14.371772 9.7715626 14.170491 10.332Q13.96921 10.892438 13.588772 11.29275Q13.208335 11.693063 12.678928 11.903063Q12.149522 12.113063 11.48971 12.113063ZM11.48971 11.167313Q11.98921 11.167313 12.36346 10.927032Q12.73771 10.68675 12.942741 10.219125Q13.147772 9.7515001 13.147772 9.0705004Q13.147772 8.0409374 12.69646 7.5114374Q12.245147 6.9819374 11.48971 6.9819374Q10.99021 6.9819374 10.616054 7.2179999Q10.241898 7.4540625 10.036772 7.9199061Q9.8316469 8.3857498 9.8316469 9.0705004Q9.8316469 10.09125 10.284835 10.629281Q10.738022 11.167313 11.48971 11.167313ZM16.354904 12.089063Q16.06428 12.089063 15.908748 11.927531Q15.753217 11.766 15.753217 11.46675L15.753217 6.6740627Q15.753217 6.3714375 15.908748 6.2159061Q16.06428 6.0603752 16.346466 6.0603752Q16.628466 6.0603752 16.78231 6.2159061Q16.936153 6.3714375 16.936153 6.6740627L16.936153 7.6505623L16.804153 7.3948126Q17.037216 6.7531877 17.544685 6.3947811Q18.052155 6.036375 18.758654 6.036375Q19.487467 6.036375 19.945154 6.3844686Q20.402842 6.7325625 20.568966 7.4493752L20.397591 7.4493752Q20.623716 6.7961249 21.177404 6.4162502Q21.731092 6.036375 22.468529 6.036375Q23.13003 6.036375 23.562872 6.295125Q23.995716 6.553875 24.211716 7.0739999Q24.427717 7.5941248 24.427717 8.3893127L24.427717 11.46675Q24.427717 11.766 24.267872 11.927531Q24.108028 12.089063 23.817404 12.089063Q23.526779 12.089063 23.371248 11.927531Q23.215717 11.766 23.215717 11.46675L23.215717 8.4457502Q23.215717 7.7010002 22.962498 7.3543124Q22.709278 7.0076251 22.111717 7.0076251Q21.454342 7.0076251 21.073248 7.4667187Q20.692154 7.9258127 20.692154 8.7236252L20.692154 11.46675Q20.692154 11.766 20.536623 11.927531Q20.381092 12.089063 20.090467 12.089063Q19.799841 12.089063 19.639997 11.927531Q19.480154 11.766 19.480154 11.46675L19.480154 8.4457502Q19.480154 7.7010002 19.226934 7.3543124Q18.973717 7.0076251 18.384779 7.0076251Q17.727404 7.0076251 17.34631 7.4667187Q16.965216 7.9258127 16.965216 8.7236252L16.965216 11.46675Q16.965216 12.089063 16.354904 12.089063ZM26.719566 12.070125Q26.42894 12.070125 26.273409 11.89575Q26.117878 11.721375 26.117878 11.413688L26.117878 6.7355623Q26.117878 6.415875 26.273409 6.2475939Q26.42894 6.0793123 26.719566 6.0793123Q27.010191 6.0793123 27.170034 6.2475939Q27.329878 6.415875 27.329878 6.7355623L27.329878 11.413688Q27.329878 11.721375 27.176035 11.89575Q27.02219 12.070125 26.719566 12.070125ZM26.719566 4.8382502Q26.365566 4.8382502 26.166254 4.6560001Q25.96694 4.4737501 25.96694 4.1538749Q25.96694 3.822 26.166254 3.6474376Q26.365566 3.4728751 26.719566 3.4728751Q27.085752 3.4728751 27.279066 3.6474376Q27.472378 3.822 27.472378 4.1538749Q27.472378 4.4737501 27.279066 4.6560001Q27.085752 4.8382502 26.719566 4.8382502ZM31.612221 12.113063Q30.715971 12.113063 30.058033 11.733281Q29.400097 11.3535 29.043753 10.660969Q28.687408 9.9684372 28.687408 9.0395622Q28.687408 8.3385 28.888691 7.7839689Q29.089972 7.2294374 29.470409 6.841125Q29.850847 6.4528127 30.39394 6.2445936Q30.937035 6.036375 31.612221 6.036375Q32.025658 6.036375 32.491127 6.1599374Q32.956596 6.2835002 33.354095 6.5701876Q33.508034 6.6729374 33.552376 6.8131876Q33.596722 6.9534373 33.562504 7.0961251Q33.528282 7.2388124 33.429848 7.3388438Q33.331409 7.4388752 33.187691 7.4584689Q33.043972 7.4780626 32.874847 7.3769999Q32.586472 7.1758127 32.284409 7.0874062Q31.982346 6.9990001 31.702597 6.9990001Q31.27191 6.9990001 30.944159 7.1371875Q30.616409 7.2753749 30.389065 7.5336561Q30.161722 7.7919374 30.045002 8.1728439Q29.928284 8.55375 29.928284 9.0515623Q29.928284 10.02975 30.390753 10.59Q30.853222 11.15025 31.702597 11.15025Q31.982346 11.15025 32.280098 11.066156Q32.577847 10.982062 32.874847 10.780875Q33.043972 10.679812 33.183472 10.703719Q33.322971 10.727625 33.417095 10.827562Q33.511223 10.9275 33.536907 11.070281Q33.562595 11.213062 33.513939 11.353312Q33.465282 11.493563 33.319973 11.587687Q32.930908 11.86575 32.478283 11.989407Q32.025658 12.113063 31.612221 12.113063ZM36.68454 12.113063Q36.158039 12.113063 35.599384 11.991187Q35.04073 11.869312 34.574417 11.574Q34.420666 11.474813 34.360008 11.338875Q34.299355 11.202937 34.317352 11.067Q34.335354 10.931063 34.423477 10.830093Q34.511604 10.729125 34.649227 10.703531Q34.786854 10.677938 34.947727 10.763625Q35.420792 11.02275 35.851196 11.124937Q36.281601 11.227125 36.703476 11.227125Q37.338539 11.227125 37.658695 10.999594Q37.978851 10.772062 37.978851 10.392563Q37.978851 10.0785 37.76857 9.9041252Q37.558289 9.7297497 37.120289 9.6369371L35.979351 9.4055624Q35.231789 9.2510624 34.852196 8.8577814Q34.472603 8.4645004 34.472603 7.8423748Q34.472603 7.2905626 34.773258 6.884531Q35.073914 6.4784999 35.611855 6.2574377Q36.149792 6.036375 36.850666 6.036375Q37.378666 6.036375 37.847603 6.1659374Q38.31654 6.2954998 38.720791 6.5632501Q38.869476 6.6523123 38.921604 6.7858124Q38.973728 6.9193125 38.941196 7.0552502Q38.908665 7.1911874 38.814541 7.2911248Q38.720417 7.3910627 38.582695 7.4106565Q38.444977 7.4302502 38.275852 7.3411875Q37.914165 7.1214375 37.556511 7.0218749Q37.198853 6.9223127 36.855728 6.9223127Q36.226101 6.9223127 35.907635 7.1592188Q35.589165 7.3961248 35.589165 7.7876248Q35.589165 8.0848122 35.781448 8.2770939Q35.973728 8.4693747 36.380791 8.5501871L37.521729 8.7817497Q38.301727 8.9396248 38.69857 9.3132191Q39.095417 9.6868124 39.095417 10.317375Q39.095417 11.15175 38.439167 11.632406Q37.782917 12.113063 36.68454 12.113063Z"/>
	<path fill="#778BA8" transform="translate(153 55.0102)" d="M3.1303899 0C1.4013712 0 0 1.3438014 0 3.0017903L0 16.009548C0 16.275864 0.11080548 16.531174 0.30774018 16.718954C0.67590922 17.983694 1.7012198 19.011337 3.1303899 19.011337L5.2173166 19.011337L5.2173166 17.010145L3.1303899 17.010145C2.5408018 17.010145 2.0869267 16.574915 2.0869267 16.009548C2.0869267 15.55197 2.3905988 15.192922 2.8165359 15.06758L5.2173166 15.2591L5.2173166 7.0041771C5.2173166 4.793859 7.0861597 3.0017903 9.3911705 3.0017903L16.695414 3.0017903L16.695414 2.0011935C16.695414 0.8955341 15.761514 0 14.608487 0L3.1303899 0ZM10.434633 5.0029836C8.705615 5.0029836 7.3042436 6.3467851 7.3042436 8.0047741L7.3042436 21.012531C7.3042436 21.278847 7.4150491 21.534157 7.6119838 21.721939C7.9801531 22.986677 9.0054636 24.014421 10.434633 24.014421L22.956194 24.014421C23.332504 24.019424 23.682529 23.829836 23.872238 23.518152C24.061945 23.206469 24.061945 22.82098 23.872238 22.509296C23.682529 22.197613 23.332504 22.008024 22.956194 22.013128L10.434633 22.013128C9.8450451 22.013128 9.3911705 21.577898 9.3911705 21.012531C9.3911705 20.447165 9.8450451 20.011934 10.434633 20.011934L21.912731 20.011934C23.065758 20.011934 23.999657 19.1164 23.999657 18.01074L23.999657 7.0041771C23.999657 5.8985176 23.065758 5.0029836 21.912731 5.0029836L10.434633 5.0029836ZM12.52156 9.0053701L18.782341 9.0053701C19.358332 9.0053701 19.825804 9.4536381 19.825804 10.005967C19.825804 10.558296 19.358332 11.006564 18.782341 11.006564L12.52156 11.006564C11.945568 11.006564 11.478097 10.558296 11.478097 10.005967C11.478097 9.4536381 11.945568 9.0053701 12.52156 9.0053701Z"/>
	<path fill="#728CAB" transform="translate(76 84)" d="M1.0741792 12.089063Q0.83474171 12.089063 0.69374168 11.981344Q0.55274171 11.873625 0.52714795 11.689781Q0.50155419 11.505938 0.60074168 11.2785L3.8450541 3.984375Q3.9733043 3.6988125 4.1553669 3.5748751Q4.337429 3.4509375 4.5663667 3.4509375Q4.7904291 3.4509375 4.9724917 3.5748751Q5.1545544 3.6988125 5.2794294 3.984375L8.5321789 11.2785Q8.6399918 11.505938 8.614398 11.694094Q8.5888042 11.88225 8.455492 11.985656Q8.3221788 12.089063 8.0911789 12.089063Q7.8178043 12.089063 7.663023 11.953125Q7.5082417 11.817187 7.3919916 11.547L6.5564919 9.6031876L7.1107416 9.9329996L1.9981792 9.9329996L2.5559916 9.6031876L1.7289292 11.547Q1.6042417 11.832562 1.4605229 11.960813Q1.3168042 12.089063 1.0741792 12.089063ZM4.5459294 4.9233751L2.7305541 9.2214375L2.4324293 8.9276247L6.6764917 8.9276247L6.3937416 9.2214375L4.5699291 4.9233751L4.5459294 4.9233751ZM12.346263 12.113063Q11.450013 12.113063 10.792076 11.733281Q10.134138 11.3535 9.7777948 10.660969Q9.4214506 9.9684372 9.4214506 9.0395622Q9.4214506 8.3385 9.6227322 7.7839689Q9.8240128 7.2294374 10.204451 6.841125Q10.584888 6.4528127 11.127982 6.2445936Q11.671076 6.036375 12.346263 6.036375Q12.759701 6.036375 13.225169 6.1599374Q13.690639 6.2835002 14.088139 6.5701876Q14.242076 6.6729374 14.28642 6.8131876Q14.330763 6.9534373 14.296544 7.0961251Q14.262325 7.2388124 14.163888 7.3388438Q14.065451 7.4388752 13.921732 7.4584689Q13.778013 7.4780626 13.608889 7.3769999Q13.320513 7.1758127 13.018451 7.0874062Q12.716388 6.9990001 12.436638 6.9990001Q12.005951 6.9990001 11.678201 7.1371875Q11.350451 7.2753749 11.123107 7.5336561Q10.895763 7.7919374 10.779044 8.1728439Q10.662326 8.55375 10.662326 9.0515623Q10.662326 10.02975 11.124794 10.59Q11.587263 11.15025 12.436638 11.15025Q12.716388 11.15025 13.014138 11.066156Q13.311888 10.982062 13.608889 10.780875Q13.778013 10.679812 13.917513 10.703719Q14.057014 10.727625 14.151138 10.827562Q14.245263 10.9275 14.27095 11.070281Q14.296638 11.213062 14.247982 11.353312Q14.199326 11.493563 14.054013 11.587687Q13.66495 11.86575 13.212326 11.989407Q12.759701 12.113063 12.346263 12.113063ZM17.83127 12.113063Q16.93502 12.113063 16.277082 11.733281Q15.619144 11.3535 15.262801 10.660969Q14.906457 9.9684372 14.906457 9.0395622Q14.906457 8.3385 15.107738 7.7839689Q15.309019 7.2294374 15.689457 6.841125Q16.069895 6.4528127 16.612988 6.2445936Q17.156082 6.036375 17.83127 6.036375Q18.244707 6.036375 18.710176 6.1599374Q19.175644 6.2835002 19.573145 6.5701876Q19.727081 6.6729374 19.771425 6.8131876Q19.815769 6.9534373 19.781551 7.0961251Q19.747332 7.2388124 19.648895 7.3388438Q19.550457 7.4388752 19.406738 7.4584689Q19.26302 7.4780626 19.093895 7.3769999Q18.805519 7.1758127 18.503456 7.0874062Q18.201395 6.9990001 17.921644 6.9990001Q17.490957 6.9990001 17.163206 7.1371875Q16.835457 7.2753749 16.608112 7.5336561Q16.38077 7.7919374 16.264051 8.1728439Q16.147331 8.55375 16.147331 9.0515623Q16.147331 10.02975 16.6098 10.59Q17.072269 11.15025 17.921644 11.15025Q18.201395 11.15025 18.499144 11.066156Q18.796894 10.982062 19.093895 10.780875Q19.26302 10.679812 19.402519 10.703719Q19.542019 10.727625 19.636145 10.827562Q19.73027 10.9275 19.755957 11.070281Q19.781645 11.213062 19.732988 11.353312Q19.684332 11.493563 19.539019 11.587687Q19.149958 11.86575 18.697332 11.989407Q18.244707 12.113063 17.83127 12.113063ZM22.948963 12.113063Q22.230839 12.113063 21.757776 11.848312Q21.284714 11.583563 21.052494 11.057438Q20.820276 10.531313 20.820276 9.7481251L20.820276 6.6740627Q20.820276 6.3628125 20.975807 6.2115936Q21.131338 6.0603752 21.421963 6.0603752Q21.712589 6.0603752 21.872433 6.2115936Q22.032276 6.3628125 22.032276 6.6740627L22.032276 9.7513123Q22.032276 10.458563 22.318964 10.800187Q22.60565 11.141812 23.2304 11.141812Q23.910276 11.141812 24.34115 10.67925Q24.772026 10.216687 24.772026 9.4563751L24.772026 6.6740627Q24.772026 6.3628125 24.927557 6.2115936Q25.083088 6.0603752 25.373713 6.0603752Q25.664339 6.0603752 25.824183 6.2115936Q25.984026 6.3628125 25.984026 6.6740627L25.984026 11.46675Q25.984026 12.089063 25.394152 12.089063Q25.11215 12.089063 24.956619 11.927531Q24.801088 11.766 24.801088 11.46675L24.801088 10.45425L24.962151 10.71Q24.717089 11.389313 24.187963 11.751187Q23.658838 12.113063 22.948963 12.113063ZM30.435976 12.113063Q29.478039 12.113063 28.785883 11.744532Q28.093725 11.376 27.717602 10.69725Q27.341476 10.0185 27.341476 9.0858746Q27.341476 8.1738749 27.70907 7.4916563Q28.076664 6.8094373 28.725225 6.4229064Q29.373789 6.036375 30.208538 6.036375Q30.815102 6.036375 31.295757 6.2369061Q31.776413 6.4374375 32.116539 6.8144999Q32.456665 7.1915627 32.635727 7.7288437Q32.814789 8.2661247 32.814789 8.9396248Q32.814789 9.1383753 32.689072 9.2419691Q32.563351 9.3455629 32.328976 9.3455629L28.2966 9.3455629L28.2966 8.6030626L31.987913 8.6030626L31.792351 8.772562Q31.792351 8.168438 31.614788 7.7531252Q31.437225 7.3378124 31.096539 7.1155314Q30.755852 6.89325 30.247726 6.89325Q29.688227 6.89325 29.29607 7.1550002Q28.903913 7.41675 28.700569 7.8825936Q28.497227 8.3484373 28.497227 8.9746876L28.497227 9.0517502Q28.497227 10.098187 28.997383 10.63275Q29.49754 11.167313 30.4461 11.167313Q30.806664 11.167313 31.205288 11.075438Q31.603914 10.983562 31.969351 10.7535Q32.172787 10.630313 32.335258 10.641375Q32.497726 10.652437 32.597851 10.749844Q32.697975 10.84725 32.723759 10.990031Q32.749538 11.132812 32.67857 11.285063Q32.607601 11.437312 32.426289 11.551875Q32.020164 11.82975 31.475945 11.971406Q30.931726 12.113063 30.435976 12.113063ZM34.722481 12.070125Q34.431854 12.070125 34.276321 11.89575Q34.120792 11.721375 34.120792 11.413688L34.120792 6.7355623Q34.120792 6.415875 34.276321 6.2475939Q34.431854 6.0793123 34.722481 6.0793123Q35.013103 6.0793123 35.172947 6.2475939Q35.33279 6.415875 35.33279 6.7355623L35.33279 11.413688Q35.33279 11.721375 35.178947 11.89575Q35.025105 12.070125 34.722481 12.070125ZM34.722481 4.8382502Q34.368481 4.8382502 34.169167 4.6560001Q33.969856 4.4737501 33.969856 4.1538749Q33.969856 3.822 34.169167 3.6474376Q34.368481 3.4728751 34.722481 3.4728751Q35.088669 3.4728751 35.281979 3.6474376Q35.475292 3.822 35.475292 4.1538749Q35.475292 4.4737501 35.281979 4.6560001Q35.088669 4.8382502 34.722481 4.8382502ZM38.914074 12.113063Q37.987637 12.113063 37.509605 11.567344Q37.031574 11.021625 37.031574 9.9836254L37.031574 4.0646248Q37.031574 3.7620001 37.187103 3.6064687Q37.342636 3.4509375 37.633259 3.4509375Q37.923885 3.4509375 38.083729 3.6064687Q38.243572 3.7620001 38.243572 4.0646248L38.243572 9.9080629Q38.243572 10.512188 38.493229 10.805625Q38.742886 11.099063 39.209572 11.099063Q39.312511 11.099063 39.396511 11.091375Q39.480511 11.083688 39.56451 11.075063Q39.711697 11.058 39.769917 11.1495Q39.828136 11.241 39.828136 11.519625Q39.828136 11.771063 39.722012 11.90775Q39.615887 12.044437 39.371197 12.080438Q39.261509 12.092438 39.145168 12.10275Q39.028824 12.113063 38.914074 12.113063Z"/>
	<path fill="#778BA8" transform="translate(85 55.0102)" d="M12.007259 0L0 12.579269L3.2747071 12.579269L3.2747071 24.014519L10.91569 24.014519L10.91569 16.39102L13.098828 16.39102L13.098828 24.014519L20.739811 24.014519L20.739811 12.579269L24.014519 12.579269L12.007259 0ZM12.007259 3.4196556L18.556673 10.281301L18.556673 11.308686L18.556673 21.473352L15.281966 21.473352L15.281966 13.849853L8.7325525 13.849853L8.7325525 21.473352L5.4578452 21.473352L5.4578452 10.281301L12.007259 3.4196556Z"/>
	<path fill="#3792FF" transform="translate(199 47)" d="M0 23L0 37C1.5556136e-15 49.702549 10.297451 60 23 60L45 60C57.702549 60 68 49.702549 68 37L68 23C68 10.297451 57.702549 -3.1112272e-15 45 0L23 0C10.297451 2.3334203e-15 -2.3334203e-15 10.297451 0 23Z"/>
	<path fill="#3792FF" transform="translate(216 83.9898)" d="M4.0349827 12.113063Q3.4861703 12.113063 2.9547017 12.026343Q2.4232328 11.939625 1.9569204 11.765532Q1.4906079 11.591437 1.1186079 11.334Q0.94085789 11.210813 0.87251419 11.041594Q0.80417043 10.872375 0.8341704 10.709063Q0.86417043 10.54575 0.97104543 10.425187Q1.0779204 10.304625 1.2387017 10.279031Q1.399483 10.253437 1.5858579 10.376625Q2.1241703 10.726875 2.7243578 10.888219Q3.3245454 11.049562 4.0349827 11.049562Q5.0559206 11.049562 5.5381703 10.684688Q6.0204206 10.319813 6.0204206 9.7325621Q6.0204206 9.246563 5.6745768 8.9701872Q5.328733 8.6938124 4.5082331 8.5239372L3.2264829 8.2582502Q2.0900455 8.0218124 1.5337329 7.4639063Q0.97742039 6.9060001 0.97742039 5.9805002Q0.97742039 5.4063749 1.2087954 4.9384689Q1.4401704 4.4705625 1.8625141 4.1312814Q2.284858 3.7920001 2.8682642 3.6094687Q3.4516704 3.4269376 4.1559205 3.4269376Q4.8967328 3.4269376 5.5482016 3.6225936Q6.1996703 3.8182499 6.7226081 4.2078748Q6.8834829 4.3224373 6.9372954 4.4850001Q6.9911079 4.6475625 6.9568892 4.8022499Q6.9226704 4.9569373 6.8131704 5.0629687Q6.7036705 5.1690001 6.5386705 5.1860623Q6.3736706 5.203125 6.1702328 5.076375Q5.7054205 4.7655001 5.2147331 4.6279688Q4.7240453 4.4904375 4.1474829 4.4904375Q3.5502954 4.4904375 3.1161392 4.6690311Q2.681983 4.8476248 2.4477017 5.1729374Q2.2134204 5.49825 2.2134204 5.9377499Q2.2134204 6.44625 2.536108 6.7458749Q2.8587954 7.0454998 3.6172328 7.1998124L4.8905454 7.4654999Q6.0890455 7.7175002 6.6727328 8.2418442Q7.2564206 8.7661877 7.2564206 9.6523123Q7.2564206 10.2075 7.0311394 10.659938Q6.8058581 11.112375 6.3852015 11.437969Q5.9645452 11.763562 5.3715768 11.938313Q4.7786078 12.113063 4.0349827 12.113063ZM11.294094 12.108Q10.334094 12.108 9.6440935 11.742Q8.9540939 11.376 8.5760937 10.698Q8.1980934 10.02 8.1980934 9.0839996Q8.1980934 8.1719999 8.5700941 7.4879999Q8.9420938 6.8039999 9.5900936 6.4200001Q10.238093 6.0359998 11.066093 6.0359998Q11.678094 6.0359998 12.158093 6.2340002Q12.638094 6.4320002 12.980094 6.8099999Q13.322094 7.1880002 13.496094 7.7280002Q13.670094 8.2679996 13.670094 8.9399996Q13.670094 9.1440001 13.550094 9.2460003Q13.430094 9.3479996 13.190094 9.3479996L9.1580935 9.3479996L9.1580935 8.6040001L12.854094 8.6040001L12.650094 8.7720003Q12.650094 8.1719999 12.476093 7.7519999Q12.302094 7.3319998 11.960093 7.1100001Q11.618093 6.888 11.114094 6.888Q10.550094 6.888 10.160093 7.152Q9.7700939 7.4159999 9.5660934 7.8839998Q9.3620939 8.3520002 9.3620939 8.9759998L9.3620939 9.0480003Q9.3620939 10.104 9.8600941 10.638Q10.358094 11.172 11.306094 11.172Q11.666094 11.172 12.068093 11.076Q12.470094 10.98 12.830093 10.752Q13.034094 10.632 13.196094 10.644Q13.358094 10.656 13.460093 10.752Q13.562094 10.848 13.586094 10.992Q13.610094 11.136 13.538094 11.286Q13.466094 11.436 13.286094 11.556Q12.878094 11.832 12.338094 11.97Q11.798094 12.108 11.294094 12.108ZM11.546094 5.3039999Q11.450094 5.448 11.312094 5.4720001Q11.174094 5.4959998 11.042093 5.4239998Q10.910093 5.3520002 10.856093 5.2199998Q10.802094 5.0879998 10.874094 4.9320002L11.846094 3.0480001Q11.942094 2.8559999 12.092093 2.796Q12.242094 2.7360001 12.404094 2.7780001Q12.566093 2.8199999 12.680094 2.928Q12.794094 3.036 12.818093 3.198Q12.842093 3.3599999 12.734094 3.516L11.546094 5.3039999ZM15.600285 12.089063Q15.301222 12.089063 15.141378 11.927531Q14.981535 11.766 14.981535 11.46675L14.981535 6.6740627Q14.981535 6.3714375 15.137066 6.2159061Q15.292597 6.0603752 15.574784 6.0603752Q15.856785 6.0603752 16.010628 6.2159061Q16.164473 6.3714375 16.164473 6.6740627L16.164473 7.5479999L16.044472 7.5479999Q16.22991 6.8315625 16.747879 6.4559999Q17.265846 6.0804377 18.067972 6.0294375Q18.278347 6.0123749 18.407536 6.1310625Q18.536722 6.2497501 18.553785 6.5062499Q18.570847 6.7543125 18.438379 6.9056249Q18.30591 7.0569377 18.033848 7.0858126L17.804535 7.1064377Q17.027534 7.1818123 16.619066 7.59975Q16.210598 8.0176878 16.210598 8.7502499L16.210598 11.46675Q16.210598 11.766 16.056753 11.927531Q15.902909 12.089063 15.600285 12.089063ZM20.061659 12.070125Q19.771032 12.070125 19.615501 11.89575Q19.45997 11.721375 19.45997 11.413688L19.45997 6.7355623Q19.45997 6.415875 19.615501 6.2475939Q19.771032 6.0793123 20.061659 6.0793123Q20.352283 6.0793123 20.512127 6.2475939Q20.67197 6.415875 20.67197 6.7355623L20.67197 11.413688Q20.67197 11.721375 20.518127 11.89575Q20.364283 12.070125 20.061659 12.070125ZM20.061659 4.8382502Q19.707659 4.8382502 19.508347 4.6560001Q19.309032 4.4737501 19.309032 4.1538749Q19.309032 3.822 19.508347 3.6474376Q19.707659 3.4728751 20.061659 3.4728751Q20.427845 3.4728751 20.621159 3.6474376Q20.81447 3.822 20.81447 4.1538749Q20.81447 4.4737501 20.621159 4.6560001Q20.427845 4.8382502 20.061659 4.8382502ZM25.124001 12.113063Q24.166063 12.113063 23.473907 11.744532Q22.781752 11.376 22.405626 10.69725Q22.029501 10.0185 22.029501 9.0858746Q22.029501 8.1738749 22.397095 7.4916563Q22.764688 6.8094373 23.413252 6.4229064Q24.061813 6.036375 24.896564 6.036375Q25.503126 6.036375 25.983782 6.2369061Q26.464439 6.4374375 26.804564 6.8144999Q27.14469 7.1915627 27.323751 7.7288437Q27.502813 8.2661247 27.502813 8.9396248Q27.502813 9.1383753 27.377094 9.2419691Q27.251377 9.3455629 27.017002 9.3455629L22.984627 9.3455629L22.984627 8.6030626L26.67594 8.6030626L26.480377 8.772562Q26.480377 8.168438 26.302814 7.7531252Q26.125252 7.3378124 25.784563 7.1155314Q25.443876 6.89325 24.935751 6.89325Q24.376251 6.89325 23.984095 7.1550002Q23.591938 7.41675 23.388596 7.8825936Q23.185251 8.3484373 23.185251 8.9746876L23.185251 9.0517502Q23.185251 10.098187 23.685408 10.63275Q24.185564 11.167313 25.134127 11.167313Q25.494688 11.167313 25.893314 11.075438Q26.291939 10.983562 26.657377 10.7535Q26.860813 10.630313 27.023283 10.641375Q27.185751 10.652437 27.285877 10.749844Q27.386002 10.84725 27.411783 10.990031Q27.437565 11.132812 27.366594 11.285063Q27.295626 11.437312 27.114313 11.551875Q26.708189 11.82975 26.163971 11.971406Q25.619751 12.113063 25.124001 12.113063ZM30.859692 12.113063Q30.333193 12.113063 29.774536 11.991187Q29.215879 11.869312 28.749567 11.574Q28.595818 11.474813 28.535162 11.338875Q28.474504 11.202937 28.492504 11.067Q28.510506 10.931063 28.598629 10.830093Q28.686754 10.729125 28.824379 10.703531Q28.962006 10.677938 29.122879 10.763625Q29.595942 11.02275 30.026348 11.124937Q30.456755 11.227125 30.87863 11.227125Q31.513693 11.227125 31.833849 10.999594Q32.154003 10.772062 32.154003 10.392563Q32.154003 10.0785 31.943724 9.9041252Q31.733442 9.7297497 31.295443 9.6369371L30.154505 9.4055624Q29.406942 9.2510624 29.027349 8.8577814Q28.647755 8.4645004 28.647755 7.8423748Q28.647755 7.2905626 28.948412 6.884531Q29.249067 6.4784999 29.787004 6.2574377Q30.324942 6.036375 31.025818 6.036375Q31.553818 6.036375 32.022755 6.1659374Q32.491692 6.2954998 32.895943 6.5632501Q33.044628 6.6523123 33.096756 6.7858124Q33.14888 6.9193125 33.116348 7.0552502Q33.083817 7.1911874 32.989693 7.2911248Q32.895569 7.3910627 32.757847 7.4106565Q32.620129 7.4302502 32.451004 7.3411875Q32.089317 7.1214375 31.731661 7.0218749Q31.374004 6.9223127 31.03088 6.9223127Q30.401255 6.9223127 30.082787 7.1592188Q29.764317 7.3961248 29.764317 7.7876248Q29.764317 8.0848122 29.956598 8.2770939Q30.14888 8.4693747 30.555943 8.5501871L31.69688 8.7817497Q32.476879 8.9396248 32.873722 9.3132191Q33.270569 9.6868124 33.270569 10.317375Q33.270569 11.15175 32.614319 11.632406Q31.958067 12.113063 30.859692 12.113063Z"/>
	<path fill="#3792FF" transform="translate(222 55)" d="M17.987438 0.00052504509C17.675491 0.0098152943 17.379416 0.14012265 17.161938 0.36384076L12.138589 5.3846288L9.3666 1.6928728C9.1093807 1.3495305 8.6884365 1.1694238 8.262332 1.2203975C7.8362269 1.2713711 7.469698 1.5456809 7.3008127 1.939997C7.1319275 2.3343129 7.1863437 2.7887292 7.4435625 3.1320717L9.6058073 6.0128131L3.6021779 6.0128131C1.6161771 6.0128131 0 7.6281662 0 9.6131544L0 20.414177C0 22.399166 1.6161771 24.014519 3.6021779 24.014519L20.41234 24.014519C22.398342 24.014519 24.014519 22.399166 24.014519 20.414177L24.014519 9.6131544C24.014519 7.6281662 22.398342 6.0128131 20.41234 6.0128131L14.905886 6.0128131L18.859838 2.0608764C19.214966 1.715854 19.321745 1.1883147 19.128723 0.73245531C18.935701 0.27659598 18.482477 -0.014066436 17.987438 0.00052504509L17.987438 0.00052504509ZM3.6021779 8.4130411L11.974426 8.4130411L15.609437 8.4130411C16.272238 8.4130411 16.810163 8.9518919 16.810163 9.6131544L16.810163 20.414177C16.810163 21.075439 16.272238 21.61429 15.609437 21.61429L3.6021779 21.61429C2.9393771 21.61429 2.4014518 21.075439 2.4014518 20.414177L2.4014518 9.6131544C2.4014518 8.9518919 2.9393771 8.4130411 3.6021779 8.4130411ZM19.811977 9.6131544L21.012703 9.6131544C21.344105 9.6131544 21.613068 9.8819799 21.613068 10.213211L21.613068 11.413325C21.613068 11.744556 21.344105 12.013382 21.012703 12.013382L19.811977 12.013382C19.480577 12.013382 19.211615 11.744556 19.211615 11.413325L19.211615 10.213211C19.211615 9.8819799 19.480577 9.6131544 19.811977 9.6131544ZM19.811977 14.41361L21.012703 14.41361C21.344105 14.41361 21.613068 14.682434 21.613068 15.013666L21.613068 16.213779C21.613068 16.545012 21.344105 16.813837 21.012703 16.813837L19.811977 16.813837C19.480577 16.813837 19.211615 16.545012 19.211615 16.213779L19.211615 15.013666C19.211615 14.682434 19.480577 14.41361 19.811977 14.41361Z"/>
	<path fill="#728CAB" transform="translate(286 84)" d="M1.7493845 12.089063Q1.443197 12.089063 1.2714471 11.917219Q1.099697 11.745375 1.099697 11.422313L1.099697 4.2067499Q1.099697 3.8836875 1.2714471 3.7118437Q1.443197 3.54 1.7664471 3.54L6.0412593 3.54Q6.2975721 3.54 6.4276032 3.6682501Q6.5576344 3.7965 6.5576344 4.0323749Q6.5576344 4.2804375 6.4276032 4.4129062Q6.2975721 4.5453749 6.0412593 4.5453749L2.3371971 4.5453749L2.3371971 7.24575L5.7926345 7.24575Q6.0405097 7.24575 6.1747594 7.3740001Q6.3090096 7.5022502 6.3090096 7.7381248Q6.3090096 7.9860001 6.1747594 8.1185627Q6.0405097 8.2511253 5.7926345 8.2511253L2.3371971 8.2511253L2.3371971 11.422313Q2.3371971 12.089063 1.7493845 12.089063ZM8.5557251 12.070125Q8.2651005 12.070125 8.1095695 11.89575Q7.9540377 11.721375 7.9540377 11.413688L7.9540377 6.7355623Q7.9540377 6.415875 8.1095695 6.2475939Q8.2651005 6.0793123 8.5557251 6.0793123Q8.8463507 6.0793123 9.0061941 6.2475939Q9.1660376 6.415875 9.1660376 6.7355623L9.1660376 11.413688Q9.1660376 11.721375 9.0121937 11.89575Q8.8583508 12.070125 8.5557251 12.070125ZM8.5557251 4.8382502Q8.201725 4.8382502 8.0024128 4.6560001Q7.8031001 4.4737501 7.8031001 4.1538749Q7.8031001 3.822 8.0024128 3.6474376Q8.201725 3.4728751 8.5557251 3.4728751Q8.9219131 3.4728751 9.1152258 3.6474376Q9.3085375 3.822 9.3085375 4.1538749Q9.3085375 4.4737501 9.1152258 4.6560001Q8.9219131 4.8382502 8.5557251 4.8382502ZM12.747318 12.113063Q11.820881 12.113063 11.34285 11.567344Q10.864819 11.021625 10.864819 9.9836254L10.864819 4.0646248Q10.864819 3.7620001 11.02035 3.6064687Q11.175881 3.4509375 11.466506 3.4509375Q11.757132 3.4509375 11.916975 3.6064687Q12.076818 3.7620001 12.076818 4.0646248L12.076818 9.9080629Q12.076818 10.512188 12.326475 10.805625Q12.576131 11.099063 13.042819 11.099063Q13.145756 11.099063 13.229756 11.091375Q13.313756 11.083688 13.397757 11.075063Q13.544944 11.058 13.603163 11.1495Q13.661381 11.241 13.661381 11.519625Q13.661381 11.771063 13.555256 11.90775Q13.449131 12.044437 13.204444 12.080438Q13.094756 12.092438 12.978413 12.10275Q12.862068 12.113063 12.747318 12.113063ZM15.165816 12.089063Q14.875192 12.089063 14.719661 11.927531Q14.564129 11.766 14.564129 11.46675L14.564129 6.6740627Q14.564129 6.3714375 14.719661 6.2159061Q14.875192 6.0603752 15.157379 6.0603752Q15.439379 6.0603752 15.593223 6.2159061Q15.747066 6.3714375 15.747066 6.6740627L15.747066 7.6505623L15.615067 7.3948126Q15.848129 6.7531877 16.355598 6.3947811Q16.863066 6.036375 17.569567 6.036375Q18.29838 6.036375 18.756067 6.3844686Q19.213755 6.7325625 19.379879 7.4493752L19.208504 7.4493752Q19.434629 6.7961249 19.988317 6.4162502Q20.542004 6.036375 21.279442 6.036375Q21.940941 6.036375 22.373785 6.295125Q22.806629 6.553875 23.022629 7.0739999Q23.238628 7.5941248 23.238628 8.3893127L23.238628 11.46675Q23.238628 11.766 23.078785 11.927531Q22.918941 12.089063 22.628317 12.089063Q22.337692 12.089063 22.182161 11.927531Q22.026628 11.766 22.026628 11.46675L22.026628 8.4457502Q22.026628 7.7010002 21.773411 7.3543124Q21.520191 7.0076251 20.922628 7.0076251Q20.265255 7.0076251 19.884161 7.4667187Q19.503067 7.9258127 19.503067 8.7236252L19.503067 11.46675Q19.503067 11.766 19.347536 11.927531Q19.192003 12.089063 18.901379 12.089063Q18.610754 12.089063 18.450911 11.927531Q18.291067 11.766 18.291067 11.46675L18.291067 8.4457502Q18.291067 7.7010002 18.037848 7.3543124Q17.78463 7.0076251 17.195692 7.0076251Q16.538317 7.0076251 16.157223 7.4667187Q15.776129 7.9258127 15.776129 8.7236252L15.776129 11.46675Q15.776129 12.089063 15.165816 12.089063ZM26.979666 12.113063Q26.453165 12.113063 25.89451 11.991187Q25.335854 11.869312 24.869541 11.574Q24.715792 11.474813 24.655134 11.338875Q24.594479 11.202937 24.612478 11.067Q24.630478 10.931063 24.718603 10.830093Q24.806728 10.729125 24.944353 10.703531Q25.081978 10.677938 25.242853 10.763625Q25.715916 11.02275 26.146322 11.124937Q26.576729 11.227125 26.998604 11.227125Q27.633665 11.227125 27.953821 10.999594Q28.273979 10.772062 28.273979 10.392563Q28.273979 10.0785 28.063698 9.9041252Q27.853416 9.7297497 27.415417 9.6369371L26.274479 9.4055624Q25.526917 9.2510624 25.147322 8.8577814Q24.767729 8.4645004 24.767729 7.8423748Q24.767729 7.2905626 25.068384 6.884531Q25.369041 6.4784999 25.906979 6.2574377Q26.444916 6.036375 27.14579 6.036375Q27.67379 6.036375 28.142729 6.1659374Q28.611666 6.2954998 29.015915 6.5632501Q29.164604 6.6523123 29.216728 6.7858124Q29.268854 6.9193125 29.236322 7.0552502Q29.203791 7.1911874 29.109665 7.2911248Q29.015541 7.3910627 28.877823 7.4106565Q28.740103 7.4302502 28.570978 7.3411875Q28.209291 7.1214375 27.851635 7.0218749Q27.493979 6.9223127 27.150854 6.9223127Q26.521229 6.9223127 26.202759 7.1592188Q25.884291 7.3961248 25.884291 7.7876248Q25.884291 8.0848122 26.076572 8.2770939Q26.268854 8.4693747 26.675917 8.5501871L27.816853 8.7817497Q28.596853 8.9396248 28.993696 9.3132191Q29.390541 9.6868124 29.390541 10.317375Q29.390541 11.15175 28.734291 11.632406Q28.078041 12.113063 26.979666 12.113063Z"/>
	<path fill="#778BA8" transform="translate(290 55.0102)" d="M21.613068 0L2.4014518 0C1.0770512 0 0 1.1967235 0 2.6682799L0 21.346239C0 22.817795 1.0770512 24.014519 2.4014518 24.014519L21.613068 24.014519C22.937468 24.014519 24.014519 22.817795 24.014519 21.346239L24.014519 2.6682799C24.014519 1.1967235 22.937468 0 21.613068 0ZM4.8029037 21.346239L2.4014518 21.346239L2.4014518 18.677959L4.8029037 18.677959L4.8029037 21.346239ZM4.8029037 16.00968L2.4014518 16.00968L2.4014518 13.341399L4.8029037 13.341399L4.8029037 16.00968ZM4.8029037 10.67312L2.4014518 10.67312L2.4014518 8.0048399L4.8029037 8.0048399L4.8029037 10.67312ZM4.8029037 5.3365598L2.4026525 5.3365598L2.4026525 2.6682799L4.8029037 2.6682799L4.8029037 5.3365598ZM21.613068 21.346239L19.211615 21.346239L19.211615 18.677959L21.613068 18.677959L21.613068 21.346239ZM21.613068 16.00968L19.211615 16.00968L19.211615 13.341399L21.613068 13.341399L21.613068 16.00968ZM21.613068 10.67312L19.211615 10.67312L19.211615 8.0048399L21.613068 8.0048399L21.613068 10.67312ZM21.613068 5.3365598L19.211615 5.3365598L19.211615 2.6682799L21.613068 2.6682799L21.613068 5.3365598Z"/>
	<path fill="#728CAB" transform="translate(340 84)" d="M2.2535865 12.089063Q1.9543364 12.089063 1.7945864 11.919Q1.6348364 11.748938 1.6348364 11.449688L1.6348364 4.1707501Q1.6348364 3.8596876 1.8005865 3.6998436Q1.9663364 3.54 2.2655864 3.54L5.1298366 3.54Q6.5043988 3.54 7.2465239 4.1903439Q7.9886489 4.8406873 7.9886489 6.0234375Q7.9886489 6.7895627 7.6518989 7.3413749Q7.3151488 7.8931875 6.6757741 8.1845627Q6.0363989 8.4759378 5.1298366 8.4759378L5.2447739 8.3062496L5.5539613 8.3062496Q6.0356488 8.3062496 6.3912425 8.5462503Q6.7468367 8.7862501 7.0262113 9.3091879L8.0649614 11.237437Q8.1847744 11.444437 8.1744614 11.642813Q8.1641493 11.841187 8.0291491 11.965125Q7.8941488 12.089063 7.639524 12.089063Q7.3779616 12.089063 7.2138991 11.975344Q7.0498366 11.861625 6.9249616 11.632688L5.6610241 9.2964373Q5.4103365 8.8260002 5.0833364 8.6689692Q4.7563362 8.5119371 4.2273989 8.5119371L2.8723364 8.5119371L2.8723364 11.449688Q2.8723364 11.748938 2.7184927 11.919Q2.5646489 12.089063 2.2535865 12.089063ZM2.8723364 7.5661874L4.9282742 7.5661874Q5.8464613 7.5661874 6.3123989 7.1843438Q6.7783365 6.8024998 6.7783365 6.0455623Q6.7783365 5.3006248 6.3123989 4.9187813Q5.8464613 4.5369377 4.9282742 4.5369377L2.8723364 4.5369377L2.8723364 7.5661874ZM12.222825 12.113063Q11.264888 12.113063 10.572731 11.744532Q9.8805752 11.376 9.5044498 10.69725Q9.1283255 10.0185 9.1283255 9.0858746Q9.1283255 8.1738749 9.4959192 7.4916563Q9.863513 6.8094373 10.512075 6.4229064Q11.160638 6.036375 11.995388 6.036375Q12.601951 6.036375 13.082606 6.2369061Q13.563263 6.4374375 13.903388 6.8144999Q14.243513 7.1915627 14.422575 7.7288437Q14.601638 8.2661247 14.601638 8.9396248Q14.601638 9.1383753 14.475919 9.2419691Q14.350201 9.3455629 14.115826 9.3455629L10.08345 9.3455629L10.08345 8.6030626L13.774763 8.6030626L13.5792 8.772562Q13.5792 8.168438 13.401638 7.7531252Q13.224075 7.3378124 12.883388 7.1155314Q12.5427 6.89325 12.034575 6.89325Q11.475075 6.89325 11.082919 7.1550002Q10.690763 7.41675 10.487419 7.8825936Q10.284075 8.3484373 10.284075 8.9746876L10.284075 9.0517502Q10.284075 10.098187 10.784231 10.63275Q11.284388 11.167313 12.23295 11.167313Q12.593513 11.167313 12.992138 11.075438Q13.390762 10.983562 13.7562 10.7535Q13.959638 10.630313 14.122107 10.641375Q14.284575 10.652437 14.3847 10.749844Q14.484825 10.84725 14.510607 10.990031Q14.536387 11.132812 14.465419 11.285063Q14.39445 11.437312 14.213138 11.551875Q13.807013 11.82975 13.262794 11.971406Q12.718575 12.113063 12.222825 12.113063ZM18.491203 12.113063Q17.594954 12.113063 16.937016 11.733281Q16.279079 11.3535 15.922735 10.660969Q15.566391 9.9684372 15.566391 9.0395622Q15.566391 8.3385 15.767673 7.7839689Q15.968954 7.2294374 16.349392 6.841125Q16.729828 6.4528127 17.272923 6.2445936Q17.816015 6.036375 18.491203 6.036375Q18.90464 6.036375 19.37011 6.1599374Q19.835579 6.2835002 20.233078 6.5701876Q20.387016 6.6729374 20.43136 6.8131876Q20.475704 6.9534373 20.441484 7.0961251Q20.407267 7.2388124 20.308828 7.3388438Q20.210392 7.4388752 20.066673 7.4584689Q19.922955 7.4780626 19.753828 7.3769999Q19.465454 7.1758127 19.163391 7.0874062Q18.861328 6.9990001 18.581579 6.9990001Q18.15089 6.9990001 17.823141 7.1371875Q17.495392 7.2753749 17.268047 7.5336561Q17.040703 7.7919374 16.923985 8.1728439Q16.807266 8.55375 16.807266 9.0515623Q16.807266 10.02975 17.269735 10.59Q17.732204 11.15025 18.581579 11.15025Q18.861328 11.15025 19.159079 11.066156Q19.456829 10.982062 19.753828 10.780875Q19.922955 10.679812 20.062454 10.703719Q20.201954 10.727625 20.296078 10.827562Q20.390203 10.9275 20.415892 11.070281Q20.441578 11.213062 20.392921 11.353312Q20.344267 11.493563 20.198954 11.587687Q19.809891 11.86575 19.357265 11.989407Q18.90464 12.113063 18.491203 12.113063ZM22.114334 12.089063Q21.823709 12.089063 21.668179 11.927531Q21.512648 11.766 21.512648 11.46675L21.512648 4.0646248Q21.512648 3.7620001 21.668179 3.6064687Q21.823709 3.4509375 22.114334 3.4509375Q22.404961 3.4509375 22.564804 3.6064687Q22.724648 3.7620001 22.724648 4.0646248L22.724648 7.3948126L22.563585 7.3948126Q22.820648 6.7241249 23.387365 6.38025Q23.954084 6.036375 24.679335 6.036375Q25.383961 6.036375 25.841648 6.295125Q26.299335 6.553875 26.527334 7.0756874Q26.755335 7.5974998 26.755335 8.3893127L26.755335 11.46675Q26.755335 11.766 26.599804 11.927531Q26.444273 12.089063 26.153648 12.089063Q25.863022 12.089063 25.703178 11.927531Q25.543335 11.766 25.543335 11.46675L25.543335 8.4543753Q25.543335 7.7010002 25.252428 7.3543124Q24.961523 7.0076251 24.338085 7.0076251Q23.601772 7.0076251 23.16321 7.4667187Q22.724648 7.9258127 22.724648 8.6894999L22.724648 11.46675Q22.724648 12.089063 22.114334 12.089063ZM31.17485 12.113063Q30.216913 12.113063 29.524757 11.744532Q28.8326 11.376 28.456476 10.69725Q28.080351 10.0185 28.080351 9.0858746Q28.080351 8.1738749 28.447945 7.4916563Q28.815538 6.8094373 29.4641 6.4229064Q30.112663 6.036375 30.947412 6.036375Q31.553976 6.036375 32.034634 6.2369061Q32.515289 6.4374375 32.855412 6.8144999Q33.195538 7.1915627 33.374599 7.7288437Q33.553661 8.2661247 33.553661 8.9396248Q33.553661 9.1383753 33.427944 9.2419691Q33.302227 9.3455629 33.067852 9.3455629L29.035475 9.3455629L29.035475 8.6030626L32.726788 8.6030626L32.531227 8.772562Q32.531227 8.168438 32.353664 7.7531252Q32.176102 7.3378124 31.835413 7.1155314Q31.494726 6.89325 30.986601 6.89325Q30.427101 6.89325 30.034945 7.1550002Q29.642788 7.41675 29.439444 7.8825936Q29.236101 8.3484373 29.236101 8.9746876L29.236101 9.0517502Q29.236101 10.098187 29.736258 10.63275Q30.236414 11.167313 31.184975 11.167313Q31.545538 11.167313 31.944162 11.075438Q32.342789 10.983562 32.708225 10.7535Q32.911663 10.630313 33.074131 10.641375Q33.236599 10.652437 33.336727 10.749844Q33.436852 10.84725 33.462631 10.990031Q33.488415 11.132812 33.417446 11.285063Q33.346474 11.437312 33.165165 11.551875Q32.759037 11.82975 32.214821 11.971406Q31.670601 12.113063 31.17485 12.113063ZM35.478416 12.089063Q35.179356 12.089063 35.019508 11.927531Q34.859665 11.766 34.859665 11.46675L34.859665 6.6740627Q34.859665 6.3714375 35.015198 6.2159061Q35.170731 6.0603752 35.452915 6.0603752Q35.734917 6.0603752 35.88876 6.2159061Q36.042603 6.3714375 36.042603 6.6740627L36.042603 7.5479999L35.922604 7.5479999Q36.10804 6.8315625 36.626011 6.4559999Q37.143978 6.0804377 37.946102 6.0294375Q38.156479 6.0123749 38.285667 6.1310625Q38.414852 6.2497501 38.431915 6.5062499Q38.448978 6.7543125 38.316509 6.9056249Q38.18404 7.0569377 37.91198 7.0858126L37.682667 7.1064377Q36.905666 7.1818123 36.497196 7.59975Q36.08873 8.0176878 36.08873 8.7502499L36.08873 11.46675Q36.08873 11.766 35.934887 11.927531Q35.78104 12.089063 35.478416 12.089063ZM41.836075 12.113063Q40.939827 12.113063 40.281887 11.733281Q39.623951 11.3535 39.267609 10.660969Q38.911263 9.9684372 38.911263 9.0395622Q38.911263 8.3385 39.112545 7.7839689Q39.313828 7.2294374 39.694263 6.841125Q40.074699 6.4528127 40.617794 6.2445936Q41.160889 6.036375 41.836075 6.036375Q42.249512 6.036375 42.714981 6.1599374Q43.18045 6.2835002 43.57795 6.5701876Q43.731888 6.6729374 43.776234 6.8131876Q43.820576 6.9534373 43.786358 7.0961251Q43.75214 7.2388124 43.653702 7.3388438Q43.555264 7.4388752 43.411545 7.4584689Q43.267826 7.4780626 43.098701 7.3769999Q42.810326 7.1758127 42.508263 7.0874062Q42.2062 6.9990001 41.926449 6.9990001Q41.495762 6.9990001 41.168015 7.1371875Q40.840263 7.2753749 40.612919 7.5336561Q40.385574 7.7919374 40.268856 8.1728439Q40.152138 8.55375 40.152138 9.0515623Q40.152138 10.02975 40.614609 10.59Q41.077076 11.15025 41.926449 11.15025Q42.2062 11.15025 42.503952 11.066156Q42.801701 10.982062 43.098701 10.780875Q43.267826 10.679812 43.407326 10.703719Q43.546825 10.727625 43.640949 10.827562Q43.735077 10.9275 43.760765 11.070281Q43.786449 11.213062 43.737793 11.353312Q43.689137 11.493563 43.543827 11.587687Q43.154762 11.86575 42.702137 11.989407Q42.249512 12.113063 41.836075 12.113063ZM45.459206 12.089063Q45.168583 12.089063 45.01305 11.927531Q44.857521 11.766 44.857521 11.46675L44.857521 4.0646248Q44.857521 3.7620001 45.01305 3.6064687Q45.168583 3.4509375 45.459206 3.4509375Q45.749832 3.4509375 45.909676 3.6064687Q46.069519 3.7620001 46.069519 4.0646248L46.069519 7.3948126L45.908459 7.3948126Q46.16552 6.7241249 46.732239 6.38025Q47.298958 6.036375 48.024208 6.036375Q48.728832 6.036375 49.18652 6.295125Q49.644207 6.553875 49.872208 7.0756874Q50.100208 7.5974998 50.100208 8.3893127L50.100208 11.46675Q50.100208 11.766 49.944675 11.927531Q49.789146 12.089063 49.49852 12.089063Q49.207893 12.089063 49.04805 11.927531Q48.888206 11.766 48.888206 11.46675L48.888206 8.4543753Q48.888206 7.7010002 48.597301 7.3543124Q48.306393 7.0076251 47.682957 7.0076251Q46.946644 7.0076251 46.508083 7.4667187Q46.069519 7.9258127 46.069519 8.6894999L46.069519 11.46675Q46.069519 12.089063 45.459206 12.089063ZM54.519722 12.113063Q53.561787 12.113063 52.869629 11.744532Q52.177471 11.376 51.801346 10.69725Q51.425224 10.0185 51.425224 9.0858746Q51.425224 8.1738749 51.792816 7.4916563Q52.160412 6.8094373 52.808971 6.4229064Q53.457535 6.036375 54.292286 6.036375Q54.898849 6.036375 55.379505 6.2369061Q55.860161 6.4374375 56.200287 6.8144999Q56.540409 7.1915627 56.719471 7.7288437Q56.898537 8.2661247 56.898537 8.9396248Q56.898537 9.1383753 56.772816 9.2419691Q56.647099 9.3455629 56.412724 9.3455629L52.380348 9.3455629L52.380348 8.6030626L56.071659 8.6030626L55.876099 8.772562Q55.876099 8.168438 55.698536 7.7531252Q55.520973 7.3378124 55.180286 7.1155314Q54.839596 6.89325 54.331474 6.89325Q53.771973 6.89325 53.379818 7.1550002Q52.987659 7.41675 52.784317 7.8825936Q52.580971 8.3484373 52.580971 8.9746876L52.580971 9.0517502Q52.580971 10.098187 53.081127 10.63275Q53.581284 11.167313 54.529846 11.167313Q54.890411 11.167313 55.289036 11.075438Q55.68766 10.983562 56.053097 10.7535Q56.256535 10.630313 56.419003 10.641375Q56.581474 10.652437 56.681599 10.749844Q56.781723 10.84725 56.807503 10.990031Q56.833286 11.132812 56.762318 11.285063Q56.691349 11.437312 56.510036 11.551875Q56.103909 11.82975 55.559692 11.971406Q55.015472 12.113063 54.519722 12.113063Z"/>
	<path fill="#778BA8" transform="translate(358 55.0102)" d="M10 0C4.488997 0 0 4.488997 0 10C0 15.511003 4.488997 20 10 20C12.396508 20 14.597385 19.148987 16.322266 17.736328L22.292969 23.707031C22.543785 23.968271 22.916237 24.073507 23.266678 23.982149C23.617121 23.890793 23.890793 23.617121 23.982149 23.266678C24.073507 22.916237 23.968271 22.543785 23.707031 22.292969L17.736328 16.322266C19.148987 14.597385 20 12.396508 20 10C20 4.488997 15.511003 0 10 0ZM10 2C14.430123 2 18 5.5698776 18 10C18 14.430123 14.430123 18 10 18C5.5698776 18 2 14.430123 2 10C2 5.5698776 5.5698776 2 10 2Z"/>
</svg>
